<!-- created by svgstack.com | Attribution is required. --><svg width="68" height="68" viewBox="0 0 68 68" fill="none" xmlns="http://www.w3.org/2000/svg"><g clip-path="url(#clip0_809_949)"><path d="M67.4333 33.9995C67.4333 52.4649 52.4644 67.4333 33.9998 67.4333C15.5352 67.4333 0.56665 52.4649 0.56665 33.9995C0.56665 15.5355 15.5352 0.56665 33.9998 0.56665C52.4644 0.56665 67.4333 15.5355 67.4333 33.9995Z" fill="#231F20"/><path d="M66.2601 33.9996C66.2601 51.8174 51.8169 66.2605 33.9998 66.2605C16.1828 66.2605 1.73914 51.8174 1.73914 33.9996C1.73914 16.1831 16.1828 1.73962 33.9998 1.73962C51.8169 1.73962 66.2601 16.1831 66.2601 33.9996" fill="#BDBCBC"/><path d="M8.05381 17.7513C8.05381 17.778 4.47456 18.3222 4.47803 18.3392C4.4955 18.4282 4.29262 36.752 7.56128 35.8297C9.71354 34.8171 8.55542 22.8776 8.55542 24.4834C8.55542 26.7219 8.7728 30.3932 9.63155 36.1592C10.5994 42.6543 10.1915 43.4635 10.6428 44.8621C9.59296 43.8425 7.95959 43.3838 7.95959 43.3838L10.2756 51.2122L11.9813 51.1947C11.9813 51.1947 12.0059 50.6689 12.0282 50.644C12.0742 50.6435 13.713 50.7653 14.839 52.8259C21.3543 64.7502 38.5076 60.1649 34.0173 60.4234L41.0856 59.5725C20.3847 63.1141 16.5013 53.5695 15.4603 51.664C14.8082 50.7084 12.9335 49.7072 11.7549 50.2772C11.7549 50.2772 14.6318 50.3921 14.5039 49.6292C15.4029 50.5024 12.2684 48.2161 12.2684 48.2161L12.4262 48.7117C12.9123 48.7609 12.6933 48.2362 13.2055 48.1504L12.5699 47.8594C12.4884 47.7595 12.9231 47.2407 11.3711 36.8255C10.5184 31.1028 10.6903 26.6477 10.6903 24.4307C10.6903 22.2829 10.5501 22.1309 10.554 22.1151L9.29256 21.2913L9.05062 21.2423C8.70279 21.1718 8.35844 21.0605 8.20903 20.9776C8.28654 20.8624 8.33118 20.7086 8.33118 20.4549C8.33118 20.2096 8.30491 19.8897 8.27072 19.4766C8.22562 18.9241 8.24796 16.9445 8.17168 17.6057C4.15217 52.4898 9.71622 13.7013 9.03267 14.4466L9.42357 14.0037C11.3168 11.8181 17.9311 6.71413 34.9972 6.31504C53.0446 5.89217 53.1265 12.4842 53.1882 12.5805L57.8633 14.8962C57.8016 14.7971 51.7294 4.7188 33.4014 5.14784C16.1304 5.5522 11.0036 11.4685 9.0735 13.696L8.6918 14.1294C7.89833 14.9948 6.98787 15.0026 6.98787 16.2776C6.98787 16.9585 6.22457 17.8655 6.27101 18.4285C8.49891 22.3426 7.72995 20.4079 8.05391 17.7512L8.05381 17.7513ZM57.4067 16.0731C57.013 16.2423 57.0725 16.8811 57.1543 17.7644C57.2149 18.4229 57.2845 19.1695 57.1543 19.6905L57.6053 19.804C57.7544 19.2059 57.6804 18.4172 57.6165 17.721C57.5761 17.2785 57.5133 16.609 57.6075 16.4903C57.6187 16.5055 57.7488 21.4755 58.7729 22.6602C60.4016 24.5456 59.5895 23.4607 59.5895 26.7464C59.5895 28.3659 60.8009 30.2534 60.7527 30.9145C60.1492 30.1504 59.9776 28.1848 59.8239 26.4218C59.6445 24.3691 59.4908 22.5967 58.7606 22.0078C59.6604 21.2188 56.5337 17.0846 56.7472 19.8841C56.8941 20.8634 56.4152 17.6855 55.7197 16.6037C53.5897 13.2887 49.177 9.41542 33.843 8.88307C19.7866 8.39504 12.82 14.1645 11.0293 15.9246C11.0315 15.9209 11.2619 15.5233 11.2619 15.5233L8.97779 14.3459L8.33155 21.1843L9.3091 19.6416C9.3091 19.6416 10.8873 16.7799 10.9162 16.7128C11.1625 16.4223 17.8232 8.79457 33.8268 9.35013C50.8858 9.94215 54.0002 14.7881 55.3305 16.8574C55.971 17.8551 56.1393 18.9702 56.2884 19.9539C56.4836 21.2494 56.6698 22.4728 58.1246 22.2773C58.2581 22.2598 58.368 22.2896 58.4701 22.3724C59.0466 22.8369 59.2059 24.6801 59.3618 26.4621C59.5659 28.8201 59.7611 31.0469 60.8447 31.5928L61.1464 31.7449L61.1789 31.4061C61.2193 30.9733 62.1536 20.7806 59.2676 17.4389C58.1313 16.1231 57.713 15.9412 57.4067 16.0731H57.4067ZM63.577 24.5219C63.3134 23.292 62.8928 21.9509 62.2692 20.5865C62.5967 21.3419 63.1205 22.6887 63.577 24.5219ZM62.2692 20.5865C62.1895 20.4016 62.1177 20.2421 62.065 20.1313C62.1402 20.2837 62.2007 20.4345 62.2692 20.5865ZM60.8155 17.2119C64.6292 20.8892 63.9449 30.3782 63.9449 30.3782L62.0897 28.223V37.4171L60.8054 40.0026C58.5217 52.2138 53.0995 62.9884 31.8367 62.4135C10.5744 61.839 7.29275 50.4902 5.29472 39.7156C3.2968 28.9415 6.15089 17.1615 6.15089 17.1615C-0.128328 35.8367 7.29275 49.9153 7.29275 49.9153C7.29275 49.9153 10.8597 63.1316 32.8361 62.9884C54.8112 62.845 58.2368 50.6339 58.2368 50.6339L58.6361 53.7158C58.6361 53.7158 63.7408 49.0465 65.31 39.2775C66.1053 34.3316 63.0319 19.3487 60.8155 17.2119V17.2119ZM62.065 20.1313C61.991 19.9762 61.9461 19.8907 61.9461 19.8907C61.9876 19.9714 62.0258 20.0516 62.065 20.1313Z" fill="#231F20"/><path d="M63.4907 28.9815C63.5162 29.0189 63.4907 28.9815 63.4907 28.9815V28.9815ZM8.88317 13.6612C8.88317 13.6612 11.789 10.9814 13.8637 9.00717C13.8637 9.00717 11.0968 10.5582 8.88317 13.6612ZM8.10989 49.2244C9.75516 52.5433 11.3741 54.7029 11.3741 54.7029C11.3741 54.7029 9.83132 52.3759 8.10989 49.2244ZM62.0056 17.328L61.4649 15.7525L66.2937 17.4691L61.622 15.0747L66.3666 12.2591L61.152 14.3969L61.9865 9.18282L60.2939 14.2194L59.0668 13.8728C56.4937 10.0473 52.9582 8.13261 48.5096 5.99876C40.2409 2.03134 29.2196 3.08334 29.2196 3.08334C29.2196 3.08334 42.231 3.24901 52.1836 9.14828C54.2391 10.3667 55.953 12.0562 57.3753 13.9657L55.2273 14.084L57.6894 14.3981C57.9216 14.7254 58.1459 15.058 58.3613 15.3954L55.5033 17.0463L58.5867 15.7521C58.9042 16.2664 59.2059 16.79 59.4897 17.3197L58.2704 21.1365L59.7118 17.7394C61.8474 21.8703 62.9725 26.2584 63.4907 28.9815C62.8928 23.2816 61.8497 19.2187 60.3758 16.1709L60.4835 15.9181C60.4835 15.9181 65.8787 22.9696 64.9107 34.535C63.9427 46.1004 61.1755 50.1905 58.4084 53.0113L58.2704 51.6004C58.2704 51.6004 54.2593 63.5895 34.3381 63.3069C14.417 63.0243 12.8954 56.5375 12.8954 56.5375L11.7886 55.9723C11.7886 55.9723 7.08547 52.3063 4.18012 42.5742C1.27466 32.8425 4.04159 24.9444 4.04159 24.9444C4.04159 24.9444 2.51994 31.4321 3.62669 38.0608C4.2002 41.4958 6.25824 45.8366 8.10989 49.2244C6.75076 46.4842 5.37268 42.9536 4.87196 39.189C3.76465 30.8677 4.04159 25.226 5.42484 20.9954C6.80808 16.7646 7.63845 14.9304 7.63845 14.9304C7.63845 14.9304 1.82854 21.7008 1.69001 36.0865C1.5516 50.4726 13.7252 60.345 19.1202 62.4608C24.5156 64.5762 41.5313 67.3966 51.7682 60.2044C62.0056 53.0113 61.3135 51.1781 64.6336 44.5484C67.9549 37.9196 66.5708 24.5211 62.0056 17.328V17.328ZM59.5828 14.69C59.5715 14.6716 59.5615 14.6532 59.5502 14.6356L59.6534 14.6488L59.5828 14.69ZM60.0584 15.539C60 15.4287 59.9417 15.3161 59.8823 15.2083L60.2075 15.0715L60.0584 15.539ZM11.3741 14.9304C12.2035 13.5201 16.4921 10.9814 16.4921 10.9814C16.4921 10.9814 14.1401 12.3922 11.5121 15.4949C8.88317 18.5974 12.4805 15.2126 17.3225 11.9686C22.1641 8.72496 28.9427 9.00717 28.9427 9.00717C28.9427 9.00717 26.7296 7.31459 18.2907 9.99468L26.4527 6.46851C26.4527 6.46851 14.0026 9.14828 10.4054 14.2255C6.80808 19.3028 10.5434 16.3409 11.3741 14.9304V14.9304ZM53.0165 14.4845C54.5431 16.0697 55.6423 17.4691 55.6423 17.4691C55.6423 17.4691 55.1926 16.0434 53.0165 14.4845V14.4845ZM5.70178 35.2405C7.22343 50.1905 13.5872 56.5375 13.5872 56.5375C13.5872 56.5375 18.4288 61.3326 33.5078 62.0376C48.5864 62.7426 53.4293 56.8193 53.8443 55.8321C54.2593 54.8449 51.9067 56.396 51.2153 56.1138C50.5235 55.8321 53.4293 50.6133 53.4293 50.6133C51.9072 56.2549 54.2593 49.7672 55.7803 50.4726C57.3024 51.1772 52.737 53.0113 54.2593 54.4217C55.7803 55.8321 58.9614 45.8182 61.0376 41.3048C63.1127 36.7919 62.4206 32.1375 62.2826 29.1755C62.1447 26.2137 61.4526 24.9444 61.4526 24.9444L61.0376 31.9968C61.0376 31.9968 61.3146 32.9836 59.1005 28.0469L57.3024 23.2518C56.0574 45.2543 51.0764 53.576 51.0764 53.576C51.0764 53.576 49.2782 59.0757 34.7526 59.2172C20.2274 59.3574 18.1519 55.5495 18.1519 55.5495C13.4487 49.344 10.6818 36.0865 11.3741 27.3424C12.0655 18.5978 11.3741 16.1998 17.5989 13.5201C23.8242 10.8408 33.2309 10.5582 33.2309 10.5582C44.53 10.2405 50.2102 12.4733 53.0165 14.4845C52.6664 14.1213 52.294 13.7471 51.9067 13.3794C49.8316 11.4052 30.6024 7.31459 20.5039 11.2636C10.4054 15.2126 9.71355 19.0206 10.4054 30.586C11.0972 42.1513 14.694 51.7415 17.184 55.4088C19.674 59.0757 28.5278 60.2044 28.5278 60.2044C16.4921 59.9218 15.1089 53.576 14.417 52.4465C13.7252 51.3183 11.6501 49.0613 11.2352 50.8955C10.8203 52.7287 7.10084 41.5174 7.79268 40.953C8.48408 40.3886 12.7569 46.6647 12.7569 46.6647C12.7569 46.6647 11.2352 43.5613 9.71354 34.8171C8.19177 26.073 10.5434 21.7008 9.0217 21.4186C7.49993 21.1365 10.9141 34.3216 6.5557 34.9079C5.31401 35.0752 6.3445 23.2465 6.89838 20.849C7.45136 18.451 8.05381 17.7513 8.05381 17.7513C8.05381 17.7513 4.18012 20.2904 5.70178 35.2405" fill="url(#paint0_linear_809_949)"/><path d="M36.0537 58.2888C36.0773 58.2877 39.5204 58.1188 42.524 57.4421C45.1336 56.8544 47.4432 55.7315 47.4661 55.7204L47.4747 55.716L47.4841 55.7119C47.4968 55.7064 48.7836 55.1509 49.5751 54.3946C50.3775 53.6273 50.7423 52.6235 50.746 52.6135C50.7622 52.5699 52.1671 48.8257 53.2296 44.8262C54.2075 41.1456 54.8782 37.077 54.885 37.0363C54.8955 36.9827 55.7057 32.8715 55.9329 28.4983C56.1242 24.8229 55.7443 20.65 55.7402 20.6083C55.7379 20.5768 55.5422 18.1056 54.5505 16.4897C53.6593 15.0379 51.9383 14.3249 51.9211 14.3175L51.9061 14.3116L51.8915 14.3038C51.8716 14.2938 49.8735 13.2929 46.0837 12.4683C43.0609 11.8108 38.8594 11.3414 35.3803 11.2734C31.403 11.1954 27.1332 11.4726 23.9597 12.0152C20.1537 12.6657 17.681 13.6322 17.6562 13.6419L17.6356 13.6496L17.6142 13.6555C17.5895 13.6622 15.1235 14.3382 13.827 15.9844C12.5098 17.6566 12.2965 20.4035 12.2946 20.4312L12.293 20.4479C12.2893 20.4756 12.0133 22.8448 12.0133 25.7484C12.0133 26.2688 12.0219 26.8066 12.0433 27.3514C12.1918 31.2186 12.8678 35.505 12.8745 35.5479C12.8824 35.59 13.7984 40.6223 14.843 44.8632C15.6168 48.0071 16.6247 50.7884 16.6348 50.8157L16.6416 50.8357L16.6468 50.856C16.6506 50.8701 16.994 52.2812 17.5527 53.2662C18.039 54.123 18.7551 54.6268 18.7626 54.6312L18.7742 54.6393L18.7858 54.649C18.7911 54.6527 19.2785 55.0463 20.0265 55.4562C20.8877 55.9278 22.0418 56.4334 22.0909 56.4541C22.1723 56.4859 24.7166 57.4598 28.0708 57.9026C31.5735 58.365 36.009 58.2896 36.0536 58.2889L36.0537 58.2888Z" fill="url(#paint1_radial_809_949)" stroke="#6D0115" stroke-width="4.25"/><path d="M20.8527 55.5941C20.7009 55.5246 20.618 55.4843 20.618 55.4843C20.6094 55.4806 20.5663 55.4617 20.4962 55.4296L20.4707 55.2788C19.87 51.9667 18.9533 45.9155 18.6533 38.5366C18.2825 29.8592 18.2968 19.2245 18.332 14.0732V13.7007C18.4333 13.6667 18.5382 13.6323 18.6466 13.5975L18.6481 13.9708C18.6125 19.0781 18.5956 29.7935 18.9687 38.5236C19.2735 46.0311 20.2183 52.1582 20.8156 55.4133L20.8527 55.5941V55.5941Z" fill="#6D0115"/><path d="M21.8444 56.0188C21.7229 55.9696 21.6086 55.9223 21.5025 55.878L21.4732 55.6455C21.0357 52.5263 20.2614 46.1676 19.8936 38.0332C19.5029 29.3858 19.5734 18.5163 19.6345 13.575L19.6353 13.2974C19.738 13.2679 19.843 13.2383 19.9502 13.2087L19.951 13.5151C19.8899 18.4225 19.8171 29.3418 20.2089 38.0195C20.585 46.338 21.3866 52.7943 21.8167 55.8203L21.8444 56.0188V56.0188Z" fill="#6D0115"/><path d="M29.2614 11.9583C29.3409 21.5371 29.57 49.1691 29.6367 57.1738L29.6427 57.8498C29.5404 57.8391 29.4354 57.8272 29.3293 57.815L29.3214 57.1726C29.2547 49.1739 29.026 21.6136 28.9465 12.0001L28.9386 11.7199C29.0447 11.711 29.1508 11.7022 29.2569 11.694L29.2614 11.9583V11.9583Z" fill="#6D0115"/><path d="M33.3682 11.8338C33.3955 20.2276 33.487 48.0119 33.5178 57.4015L33.52 58.0405C33.4094 58.042 33.3033 58.0431 33.2021 58.0435V57.3183C33.1706 47.8082 33.0791 19.9711 33.0521 11.7303L33.0506 11.5159C33.153 11.5144 33.2557 11.5133 33.3588 11.5122L33.3682 11.8338Z" fill="#6D0115"/><path d="M34.9447 11.8755C34.8982 21.1967 34.7595 49.1706 34.7186 57.4022L34.7178 58.0187C34.6087 58.0217 34.5026 58.0242 34.3976 58.0265L34.4021 57.526C34.4419 49.4393 34.5825 21.1209 34.629 11.8134L34.6215 11.5129C34.7313 11.514 34.8408 11.5152 34.9503 11.517L34.9447 11.8755V11.8755Z" fill="#6D0115"/><path d="M39.2071 57.2385C39.4335 53.4921 39.861 45.5499 40.0364 36.5632C40.2157 27.404 40.1358 16.9806 40.0807 12.0851L40.0627 11.7702C40.1905 11.7813 40.3173 11.7927 40.4436 11.8046L40.4609 12.2082C40.5156 17.1576 40.5928 27.4849 40.4155 36.5703C40.2412 45.4823 39.8194 53.3683 39.5918 57.159L39.5588 57.7005C39.426 57.7164 39.3113 57.7315 39.1763 57.746L39.2071 57.2385V57.2385Z" fill="#6D0115"/><path d="M49.9787 53.5254C49.8099 53.7553 49.633 53.9468 49.4822 54.0928L49.6337 53.2889C50.2929 49.8744 51.1451 44.5927 51.5706 38.3907C52.0761 31.0177 52.1409 20.9362 52.1301 15.2076L52.1368 14.6588C52.2598 14.7268 52.3843 14.7988 52.5087 14.8765L52.5095 15.6079C52.5166 21.4023 52.4431 31.2017 51.9486 38.4162C51.5313 44.5047 50.703 49.7111 50.0473 53.1429L49.9787 53.5254V53.5254Z" fill="#6D0115"/><path d="M53.6223 41.1567C53.8952 38.9986 54.1472 36.5765 54.3208 34.0181C54.7021 28.3952 54.7118 22.025 54.6635 17.9711L54.6548 17.2944C54.8138 17.6492 54.9421 18.0129 55.0455 18.3622L55.053 18.9909C55.0872 23.0499 55.0504 28.8624 54.6991 34.0432C54.6256 35.134 54.5371 36.1999 54.4393 37.2315L54.3234 38.371C54.0804 39.5892 53.7719 41.0747 53.4329 42.5823L53.6223 41.1567V41.1567Z" fill="#6D0115"/><path d="M48.6367 54.758C48.5168 54.8397 48.3732 54.9325 48.2112 55.0304L48.3263 54.3836C48.9584 50.9056 49.9419 44.5926 50.3285 37.2566C50.7525 29.198 50.754 19.6189 50.7184 14.7149L50.7038 14.0204C50.8118 14.0585 50.9392 14.1054 51.0806 14.1619L51.0982 14.8088C51.1331 19.7456 51.1289 29.2616 50.7068 37.2762C50.3311 44.4101 49.3915 50.5807 48.7571 54.1297L48.6367 54.758V54.758Z" fill="#6D0115"/><path d="M43.9838 56.3529C44.2826 53.1121 44.8304 46.4033 45.0936 38.31C45.3891 29.2242 45.3902 18.4575 45.3685 13.2564L45.3568 12.5168C45.4888 12.5438 45.6189 12.5711 45.7464 12.5988L45.7479 13.3148C45.7693 18.5414 45.767 29.2656 45.4723 38.3222C45.211 46.3623 44.6688 53.0386 44.3685 56.3129L44.3299 56.7106C44.2043 56.7476 44.079 56.7857 43.9399 56.8245L43.9838 56.3529V56.3529Z" fill="#6D0115"/><path d="M42.6752 56.6589C43.0033 53.9068 43.5409 48.5722 43.7625 41.6339C44.0857 31.5388 44.046 18.8079 44.0036 12.9167L43.9965 12.2614C44.1221 12.2829 44.2458 12.3043 44.3684 12.3268L44.3827 13.0117C44.4247 18.9477 44.4629 31.6005 44.1408 41.6465C43.9223 48.478 43.3985 53.7593 43.0678 56.5606L43.0067 57.0677C42.8807 57.0984 42.7461 57.1324 42.6133 57.1631L42.6752 56.6589Z" fill="#6D0115"/><path d="M41.6134 56.8822C41.8699 53.9722 42.3127 48.2085 42.5207 41.1967C42.8113 31.3972 42.7363 18.9883 42.6666 12.5187L42.6591 12.0563C42.7881 12.0736 42.9156 12.0918 43.0415 12.1102L43.0483 12.7286C43.1173 19.2581 43.1874 31.5096 42.8998 41.2078C42.6951 48.1113 42.2628 53.807 42.0045 56.7676L41.9572 57.3046C41.8267 57.3316 41.7038 57.3567 41.5692 57.3826L41.6134 56.8822V56.8822Z" fill="#6D0115"/><path d="M40.3818 57.1294C40.5993 53.7305 41.0106 46.6288 41.1902 39.0112C41.429 28.885 41.4406 17.5893 41.4301 12.3017L41.4192 11.9036C41.5479 11.918 41.6753 11.9325 41.8017 11.9472L41.8096 12.3959C41.8197 17.7246 41.8069 28.95 41.5692 39.0197C41.3915 46.5464 40.9884 53.5701 40.7687 57.0219L40.7357 57.5312C40.6004 57.5537 40.4913 57.573 40.3522 57.594L40.3818 57.1294V57.1294Z" fill="#6D0115"/><path d="M39.0789 12.1247C39.0627 17.5361 39.0084 29.8127 38.8329 40.2845C38.7114 47.5333 38.4808 53.8695 38.3466 57.1557L38.3174 57.8262C38.2105 57.835 38.1029 57.8443 37.996 57.8528L38.0268 57.2569C38.1599 54.007 38.3942 47.6101 38.5176 40.2793C38.6942 29.7561 38.7482 17.4093 38.7639 12.0419L38.7662 11.6704C38.8726 11.6778 38.9787 11.6848 39.0845 11.6926L39.0789 12.1247V12.1247Z" fill="#6D0115"/><path d="M37.5191 11.8756C37.563 16.6513 37.6282 25.9976 37.5701 34.805C37.5067 44.3391 37.3001 53.4422 37.2023 57.3616L37.1906 57.9101C37.083 57.9171 36.9762 57.9234 36.8693 57.9297L36.8839 57.4643C36.9811 53.6089 37.1906 44.4256 37.2544 34.8024C37.3125 26.0468 37.2484 16.757 37.2045 11.9584L37.2008 11.5825C37.3061 11.5873 37.4111 11.5921 37.5161 11.5972L37.5191 11.8756V11.8756Z" fill="#6D0115"/><path d="M36.2803 11.8548C36.3451 17.3321 36.4351 27.1356 36.3912 36.3814C36.3504 44.9833 36.1663 53.2219 36.0553 57.5264L36.0459 57.9718C35.9391 57.9766 35.8333 57.981 35.728 57.9855L35.7411 57.4639C35.8521 53.1458 36.0343 44.943 36.0755 36.3799C36.119 27.1803 36.0302 17.4289 35.9653 11.9376L35.9582 11.5377C36.0643 11.5407 36.1704 11.544 36.2761 11.547L36.2803 11.8548V11.8548Z" fill="#6D0115"/><path d="M25.1255 57.1028C25.0157 57.0755 24.9066 57.0474 24.7982 57.0182L24.7795 56.8134C24.5144 53.9534 23.9812 47.5218 23.7608 39.9722C23.4792 30.3412 23.5729 18.3042 23.6419 12.6362L23.6393 12.3878C23.7446 12.3697 23.8504 12.3516 23.9576 12.3339L23.9584 12.5852C23.8894 18.2273 23.7941 30.3065 24.0765 39.9633C24.2999 47.6105 24.8443 54.1083 25.1049 56.9021L25.1255 57.1028Z" fill="#6D0115"/><path d="M22.9865 56.4527C22.8725 56.412 22.7612 56.3717 22.6528 56.3318L22.627 56.0953C22.1444 52.0695 21.2112 43.3733 20.9154 34.1475C20.6649 26.3421 20.8812 17.6304 21.0271 13.249L21.0327 12.9278C21.1373 12.9023 21.2434 12.8768 21.351 12.8517L21.3469 13.1285C21.2014 17.4611 20.978 26.2615 21.2307 34.1379C21.5306 43.4938 22.4871 52.3046 22.9621 56.2394L22.9865 56.4527Z" fill="#6D0115"/><path d="M14.0022 40.4072C13.6168 38.5303 13.3914 37.1594 13.3873 37.1354L13.3333 36.3134C13.111 33.5051 12.9111 30.359 12.8646 27.6763C12.8095 24.5043 12.8328 21.3327 12.8695 18.9606L12.8564 18.6582C12.949 18.2982 13.0645 17.9209 13.2081 17.5542L13.1811 19.2407C13.147 21.5774 13.1275 24.6237 13.1807 27.6715C13.2396 31.0653 13.5444 35.2042 13.8297 38.4567L14.0022 40.4072V40.4072Z" fill="#6D0115"/><path d="M16.746 50.4229C16.5274 49.7816 16.2769 49.025 16.0171 48.1986L15.8248 47.089C15.3328 44.1806 14.8964 41.0914 14.7727 38.7185C14.1293 30.8306 14.0967 21.7253 14.1372 16.8786L14.145 15.9867C14.2451 15.8773 14.3486 15.7742 14.454 15.677L14.4559 16.5205C14.4109 21.2588 14.4285 30.6177 15.0876 38.6978C15.2316 41.4643 15.803 45.2092 16.3902 48.5017L16.746 50.4229V50.4229Z" fill="#6D0115"/><path d="M18.2975 52.0824C17.6488 48.8849 16.8487 44.1691 16.4348 38.7768C15.7921 30.4096 15.8143 20.5636 15.8776 15.6925L15.8851 14.6864C15.7929 14.7337 15.683 14.7932 15.5612 14.8646L15.5616 15.7032C15.4986 20.5854 15.4772 30.4307 16.1198 38.8005C16.5323 44.1716 17.3271 48.8746 17.9754 52.0817L18.3788 53.9844C18.4486 54.0631 18.5224 54.1407 18.6008 54.2158C18.6578 54.2697 18.7174 54.3233 18.7789 54.3758L18.2975 52.0824V52.0824Z" fill="#6D0115"/><path d="M24.0086 56.6179C23.715 53.9804 23.1964 48.6388 22.9816 42.192C22.628 31.5853 22.6029 18.3467 22.61 12.8476L22.607 12.5797C22.4994 12.6011 22.3929 12.6225 22.288 12.6443L22.2943 12.8779C22.2872 18.3977 22.3131 31.6109 22.6659 42.2024C22.8762 48.5061 23.3764 53.7556 23.6737 56.4608L23.6985 56.6937C23.8065 56.7288 23.9159 56.7632 24.0269 56.7968L24.0086 56.6179V56.6179Z" fill="#6D0115"/><path d="M17.2998 14.0703C17.1832 14.115 17.076 14.1572 16.9781 14.1967L16.9721 14.6709C16.8664 19.6211 16.7277 29.5185 17.121 36.0222C17.6789 45.2447 18.8348 51.7819 19.4062 54.5899L19.4595 54.8663C19.5806 54.9425 19.7185 55.0238 19.8321 55.0881L19.7613 54.7488C19.2105 52.0869 18.0088 45.4631 17.4363 36.0037C17.0403 29.4568 17.1847 19.4596 17.2904 14.5563L17.2998 14.0581" fill="#6D0115"/><path d="M25.3163 12.1251C25.2095 12.1402 25.1033 12.1557 24.9972 12.1709L25.0025 12.4359C24.9477 17.592 24.8776 27.7887 25.0445 36.7159C25.2031 45.2048 25.7239 52.9455 26.0174 56.778L26.0549 57.311C26.1625 57.3328 26.2702 57.3542 26.3781 57.3749L26.3436 56.9044C26.0527 53.131 25.5207 45.3042 25.3598 36.71C25.1926 27.7725 25.2634 17.5616 25.3182 12.4152L25.3163 12.1251V12.1251Z" fill="#6D0115"/><path d="M26.6568 11.9513C26.5488 11.9642 26.4416 11.9772 26.3344 11.9905L26.3336 12.2488C26.2519 16.4528 26.1308 25.1508 26.3078 33.8111C26.499 43.6597 27.0145 52.958 27.2635 57.0426L27.292 57.5367C27.4007 57.5541 27.5083 57.5715 27.6159 57.5877L27.5803 57.0477C27.3317 52.9787 26.8147 43.6682 26.6234 33.8048C26.4465 25.1312 26.5683 16.4195 26.6501 12.2285L26.6568 11.9513Z" fill="#6D0115"/><path d="M27.9481 11.8109C27.8431 11.8208 27.7377 11.8319 27.6327 11.8426L27.6305 12.1043C27.5952 16.6161 27.5465 26.1014 27.6549 35.3043C27.7602 44.2286 28.0294 53.0515 28.1644 57.0921L28.1835 57.6713C28.2904 57.6861 28.3965 57.7005 28.5011 57.7142L28.4801 57.0903C28.3451 53.0545 28.0755 44.2278 27.9705 35.3003C27.8614 26.0552 27.9113 16.5249 27.9466 12.0411L27.9481 11.8109V11.8109Z" fill="#6D0115"/><path d="M30.6866 11.5976C30.5767 11.6039 30.4669 11.6102 30.357 11.6168L30.3649 11.7931C30.4196 20.0639 30.6067 48.2629 30.6671 57.4018L30.6723 57.9489C30.7841 57.9585 30.8902 57.9673 30.9899 57.9751L30.9831 57.4225C30.9224 48.3006 30.7353 20.0258 30.6806 11.7717L30.6866 11.5976V11.5976Z" fill="#6D0115"/><path d="M32.0157 11.5385C31.9089 11.5418 31.8013 11.5458 31.6937 11.5495L31.7015 11.8545C31.7177 20.6076 31.7687 48.8073 31.784 57.2765L31.7792 58.0298C31.8613 58.035 31.9209 58.0379 31.955 58.0398C31.973 58.0398 32.0221 58.0409 32.0993 58.0416L32.1001 57.2562C32.0844 48.7629 32.0334 20.6024 32.0172 11.8548L32.0157 11.5385V11.5385Z" fill="#6D0115"/><path d="M45.0553 55.9234C45.5116 52.0843 46.3398 44.1499 46.6904 34.6354C46.9517 27.5526 46.7444 18.051 46.6079 13.2997L46.5835 12.7881C46.7163 12.8196 46.8449 12.851 46.9709 12.8824L46.99 13.408C47.1261 18.2022 47.3285 27.615 47.0691 34.6491C46.7189 44.1514 45.8929 52.081 45.4351 55.9386L45.3804 56.3784C45.2675 56.4169 45.1348 56.4612 44.9822 56.5096L45.0553 55.9234V55.9234Z" fill="#6D0115"/><path d="M46.6383 55.3749C47.0072 52.0329 47.6548 45.4272 48.0451 37.1879C48.4196 29.2764 48.4001 19.0619 48.3548 13.6463L48.3469 13.2523C48.2247 13.2169 48.0972 13.181 47.9645 13.144L47.9753 13.6112C48.0211 19.0123 48.0413 29.249 47.6664 37.1705C47.2716 45.5097 46.6132 52.1719 46.2472 55.4643L46.1768 56.0613C46.2904 56.0095 46.4242 55.9478 46.5701 55.8798L46.6383 55.3749V55.3749Z" fill="#6D0115"/><path d="M47.7991 54.6416C48.2457 51.6507 48.8538 46.7597 49.1984 40.5125C49.7113 31.2202 49.8039 19.3657 49.8185 14.0662L49.811 13.7144C49.7042 13.677 49.579 13.6349 49.4357 13.5876L49.4398 13.9432C49.4264 19.1772 49.3364 31.1359 48.8197 40.4922C48.4609 46.9936 47.8171 52.0203 47.3679 54.9584L47.2806 55.5361C47.4204 55.4662 47.5603 55.3941 47.6949 55.3228L47.7991 54.6416V54.6416Z" fill="#6D0115"/><path d="M51.1146 50.7651C51.1146 50.7651 51.4547 49.8282 51.8742 48.488L52.0332 47.4464C52.5499 43.9898 53.0951 39.6783 53.4569 35.0068C53.9379 28.7881 53.8329 21.2134 53.6991 16.6535L53.6698 15.793C53.5439 15.6637 53.4115 15.5413 53.2735 15.4268L53.3043 16.1272C53.4441 20.6013 53.578 28.5246 53.0786 34.9787C52.6586 40.4035 51.9909 45.3407 51.4082 49.0136L51.1146 50.7651Z" fill="#6D0115"/><path fill-rule="evenodd" clip-rule="evenodd" d="M24.3544 37.1701V33.8887H21.54L21.5504 25.6288H25.225L25.2052 22.312H17.5667L18.2571 47.697H21.6136L21.54 37.1701H24.3544Z" fill="#1A1A1A"/><path fill-rule="evenodd" clip-rule="evenodd" d="M26.5319 22.3121L26.9565 47.6971H30.4224L30.4928 22.3121H26.5319Z" fill="#1A1A1A"/><path fill-rule="evenodd" clip-rule="evenodd" d="M48.792 47.6971L49.5041 25.5103H52.2193L52.1985 22.3121H42.7798V25.5139H45.5175L45.4387 47.6971H48.792Z" fill="#1A1A1A"/><path fill-rule="evenodd" clip-rule="evenodd" d="M35.7194 34.0608L35.7574 25.4383H37.6924C38.5698 27.3587 39.1335 29.8982 39.5755 34.0608H35.7194ZM32.6274 47.6964H32.9673H35.4688H35.8359L35.8717 37.1995H39.7162C40.0184 39.0523 40.0925 44.7714 40.1105 47.6964H40.4284H42.9395H43.2231C43.5167 34.7368 42.6044 27.4115 40.0839 22.3119H32.3337L32.6274 47.6964V47.6964Z" fill="#1A1A1A"/><path fill-rule="evenodd" clip-rule="evenodd" d="M24.7652 33.4338H21.9436L21.9541 25.174H25.6379L25.618 21.8572H17.9603L18.6525 47.2419H22.0174L21.9436 36.7152H24.7652V33.4338Z" fill="url(#paint2_radial_809_949)"/><path fill-rule="evenodd" clip-rule="evenodd" d="M30.9188 21.8574H26.948L27.3737 47.242H30.8483L30.9188 21.8574Z" fill="url(#paint3_radial_809_949)"/><path fill-rule="evenodd" clip-rule="evenodd" d="M45.9025 47.242H49.2641L49.978 25.0555H52.7L52.6792 21.8574H43.2368V25.0592H45.9814L45.9025 47.242Z" fill="url(#paint4_radial_809_949)"/><path fill-rule="evenodd" clip-rule="evenodd" d="M36.1586 33.6059L36.1967 24.9835H38.1366C39.0162 26.9039 39.5813 29.4434 40.0244 33.6059H36.1586ZM33.0588 47.2413H33.3996H35.9074H36.2754L36.3113 36.7445H40.1655C40.4684 38.5973 40.5427 44.3163 40.5608 47.2413H40.8794H43.3968H43.6811C43.9755 34.2819 43.061 26.9567 40.5341 21.8572H32.7645L33.0588 47.2413V47.2413Z" fill="url(#paint5_radial_809_949)"/></g><defs><linearGradient id="paint0_linear_809_949" x1="2.21293" y1="64.1575" x2="65.8097" y2="3.36308" gradientUnits="userSpaceOnUse"><stop stop-color="#8C8C8C"/><stop offset="0.5" stop-color="#464646"/><stop offset="0.75" stop-color="white"/><stop offset="1" stop-color="white"/></linearGradient><radialGradient id="paint1_radial_809_949" cx="0" cy="0" r="1" gradientUnits="userSpaceOnUse" gradientTransform="translate(34 34.7771) scale(22.2134 23.7434)"><stop stop-color="#E60A47"/><stop offset="1" stop-color="#7C0626"/></radialGradient><radialGradient id="paint2_radial_809_949" cx="0" cy="0" r="1" gradientUnits="userSpaceOnUse" gradientTransform="translate(35.3302 34.5495) scale(17.3699 12.6924)"><stop stop-color="#D3D1D2"/><stop offset="0.5" stop-color="#C9C7C8"/><stop offset="1" stop-color="#8D8B8C"/></radialGradient><radialGradient id="paint3_radial_809_949" cx="0" cy="0" r="1" gradientUnits="userSpaceOnUse" gradientTransform="translate(35.3302 34.5496) scale(17.3699 12.6924)"><stop stop-color="#D3D1D2"/><stop offset="0.5" stop-color="#C9C7C8"/><stop offset="1" stop-color="#8D8B8C"/></radialGradient><radialGradient id="paint4_radial_809_949" cx="0" cy="0" r="1" gradientUnits="userSpaceOnUse" gradientTransform="translate(35.3302 34.5496) scale(17.3699 12.6924)"><stop stop-color="#D3D1D2"/><stop offset="0.5" stop-color="#C9C7C8"/><stop offset="1" stop-color="#8D8B8C"/></radialGradient><radialGradient id="paint5_radial_809_949" cx="0" cy="0" r="1" gradientUnits="userSpaceOnUse" gradientTransform="translate(35.3301 34.5496) scale(17.3699 12.6924)"><stop stop-color="#D3D1D2"/><stop offset="0.5" stop-color="#C9C7C8"/><stop offset="1" stop-color="#8D8B8C"/></radialGradient><clipPath id="clip0_809_949"><rect width="68" height="68" fill="white"/></clipPath></defs></svg> 